<svg width="657" height="412" viewBox="0 0 657 412" fill="none" xmlns="http://www.w3.org/2000/svg">
<path d="M502.728 111.064C490.53 120.126 481.794 132.176 477.615 143.469C475.691 148.536 474.455 153.816 473.959 159.086C473.547 163.084 473.605 167.038 474.133 170.831C474.475 173.259 475.037 175.596 475.809 177.803C476.389 179.303 476.741 180.036 476.839 179.993C476.936 179.949 475.833 176.727 475.267 170.522C474.548 161.867 476.043 152.722 479.567 144.221C483.772 133.594 492.394 122.359 504.187 113.956C510.417 109.504 517.034 106.124 523.802 103.937C531.208 101.504 538.704 100.794 545.856 101.846C553.366 102.995 560.168 106.526 565.598 112.095C568.603 115.134 571.044 118.873 572.813 123.143C569.856 123.305 566.768 123.435 563.547 123.779C559.704 124.118 555.831 125.036 552.021 126.511C548.035 128.097 544.245 130.66 540.92 134.02C537.513 137.402 534.706 141.583 532.734 146.215C530.761 150.847 529.68 155.796 529.58 160.649C529.546 166.105 531.135 171.082 534.073 174.717C535.739 176.722 537.892 178.082 540.321 178.664C542.654 179.17 545.13 179.076 547.597 178.388C549.823 177.794 552.03 176.937 554.184 175.832C556.297 174.778 558.366 173.542 560.371 172.135C562.358 170.778 564.273 169.24 566.094 167.537C567.926 165.856 569.643 163.99 571.223 161.967C572.808 159.953 574.215 157.76 575.415 155.432C576.669 153.129 577.689 150.688 578.448 148.172C579.981 143.118 580.537 137.899 580.072 132.939C579.953 131.571 579.766 130.225 579.514 128.908C580.989 128.754 582.464 128.559 583.918 128.295C590.208 127.139 596.438 124.391 602.178 120.238C606.893 116.811 611.258 112.625 615.124 107.826C620.945 100.504 625.752 92.179 629.308 83.2645C631.717 77.3672 633.772 71.3323 635.454 65.212C636.811 60.4023 637.677 56.7507 638.27 54.0353C638.749 51.8897 639.074 50.2566 639.272 49.065L639.623 50.1668C640.139 51.562 640.788 52.8625 641.559 54.0463C642.823 55.9781 644.311 57.6743 645.989 59.0967C648.826 61.4689 650.875 62.382 651.329 61.8446C651.783 61.3071 650.481 59.2764 648.41 56.3472C647.222 54.7165 646.139 52.9744 645.171 51.1325C644.638 50.1201 644.189 49.0379 643.831 47.8985L643.301 45.9478C643.184 45.5533 643.06 45.1355 642.874 44.6725C642.656 44.1214 642.375 43.6177 642.037 43.1737C641.615 42.6295 641.082 42.2231 640.475 41.9829C639.868 41.7426 639.201 41.6744 638.522 41.783C638.196 41.8403 637.869 41.9306 637.547 42.0529C637.22 42.1897 636.892 42.3675 636.732 42.4475L635.757 43.0447C634.544 43.7941 633.402 44.5301 632.321 45.2703C630.4 46.5729 628.525 47.9918 626.703 49.5204C623.628 52.1344 621.953 54.1345 622.25 54.7233C622.548 55.3121 624.769 54.3679 628.154 52.5937C629.854 51.7094 631.833 50.6076 634.034 49.3892L636.082 48.274C635.62 49.443 635.1 51.0401 634.405 53.2437C633.562 55.942 632.439 59.4715 630.951 64.1675C629.104 69.9951 626.976 75.7407 624.578 81.3723C621.135 89.5994 616.587 97.2721 611.143 104.038C607.633 108.325 603.689 112.066 599.439 115.14C594.431 118.753 588.996 121.139 583.512 122.133C581.647 122.501 579.741 122.689 577.759 122.867C575.681 117.147 572.56 112.197 568.586 108.32C562.528 102.295 554.978 98.5389 546.676 97.4185C538.985 96.422 530.945 97.3291 523.028 100.086C515.952 102.544 509.06 106.259 502.603 111.097L502.728 111.064ZM575.353 134.104C575.705 138.331 575.189 142.766 573.848 147.048C573.198 149.154 572.327 151.193 571.256 153.11C570.187 155.075 568.949 156.922 567.568 158.615C566.186 160.356 564.686 161.957 563.088 163.398C561.466 164.885 559.764 166.226 557.999 167.407C556.224 168.61 554.396 169.66 552.53 170.549C550.703 171.471 548.832 172.185 546.946 172.682C545.295 173.232 543.622 173.308 542.074 172.902C540.526 172.497 539.149 171.623 538.064 170.356C535.972 167.642 534.861 163.983 534.917 159.995C534.909 158.058 535.149 156.082 535.63 154.132C536.089 152.155 536.749 150.213 537.594 148.354C539.254 144.676 541.521 141.349 544.235 138.61C546.949 135.871 550.043 133.787 553.297 132.506C556.632 131.252 560.016 130.472 563.375 130.184C567.132 129.786 570.895 129.697 574.637 129.498C574.962 131.012 575.194 132.569 575.332 134.157" fill="#1666FF"/>
<g clip-path="url(#clip0_2003_7)">
<path d="M210.22 412C190.959 412 171.726 411.655 152.522 410.966C125.082 409.98 96.7071 408.961 70.334 394.334C51.8849 384.103 35.5453 367.687 23.0822 346.861C14.7521 332.746 8.64405 317.432 4.9727 301.458C-1.8758 272.375 -1.64253 242.074 5.65289 213.1C8.20948 203.166 11.7339 193.507 16.1756 184.261C35.4085 144.433 70.4878 117.698 112.419 110.911C112.765 110.866 113.116 110.859 113.464 110.889C113.652 110.899 113.84 110.91 114.032 110.902L114.278 110.823C114.911 110.603 115.561 110.437 116.221 110.325C180.89 100.697 249.255 120.177 313.919 166.656C363.918 202.599 430.18 221.953 516.492 225.825L517.718 225.89C541.745 227.27 564.987 237.176 584.933 254.538C604.62 271.674 619.402 294.537 627.68 320.656C628.698 323.841 629.631 327.155 630.453 330.508C631.218 333.623 631.164 336.884 630.296 339.973C629.428 343.061 627.775 345.872 625.498 348.133V348.139L625.283 348.36C624.766 348.874 624.221 349.368 623.665 349.827L623.01 350.367C617.494 354.911 613.138 358.5 607.924 361.288C604.446 363.134 600.747 364.531 596.917 365.443C575.884 370.571 554.524 375.325 533.431 379.575C492.468 387.834 450.426 394.648 408.471 399.825C342.699 407.935 276.491 412.001 210.22 412ZM112.973 112.299C112.844 112.298 112.716 112.307 112.588 112.326C71.0487 119.049 36.3015 145.522 17.2593 184.955C12.8615 194.109 9.3719 203.673 6.84073 213.508C-0.388204 242.225 -0.618571 272.258 6.16901 301.082C9.80442 316.903 15.8532 332.07 24.1029 346.051C36.444 366.673 52.6165 382.924 70.8722 393.047C97.0086 407.544 125.249 408.558 152.561 409.538C237.98 412.59 323.508 408.868 408.339 398.406C450.266 393.231 492.281 386.423 533.218 378.168C554.296 373.922 575.641 369.171 596.66 364.046C600.398 363.157 604.008 361.795 607.401 359.993C612.511 357.261 616.826 353.706 622.289 349.206L622.943 348.667C623.422 348.271 623.891 347.849 624.341 347.41L624.47 347.275C628.959 342.75 630.705 336.78 629.26 330.896V330.895C628.446 327.578 627.523 324.299 626.516 321.148C609.605 267.791 565.859 230.084 517.658 227.316L516.44 227.252C477.013 225.483 442.512 220.582 410.969 212.268C373.315 202.344 340.441 187.405 313.263 167.867C248.844 121.566 180.765 102.159 116.379 111.741C115.777 111.844 115.185 111.998 114.609 112.199L114.165 112.324C113.912 112.335 113.659 112.332 113.407 112.315C113.258 112.307 113.114 112.299 112.973 112.299Z" fill="#F0F0F0"/>
<path d="M199.394 196.26C197.61 194.549 195.786 185.009 193.51 184.04C195.212 187.801 193.976 188.797 193.967 192.924C193.988 195.268 193.715 197.605 193.152 199.88H154.588V169.784C154.588 167.08 155.121 164.402 156.155 161.903C157.19 159.405 158.707 157.135 160.619 155.223C162.531 153.31 164.802 151.794 167.3 150.759C169.798 149.724 172.476 149.191 175.18 149.191C176.213 149.212 177.238 149.362 178.233 149.638C181.547 150.533 184.569 152.284 186.993 154.715C189.417 157.146 191.16 160.172 192.046 163.489C194.986 174.235 199.661 192.122 199.394 196.26Z" fill="#2F2E41"/>
<path d="M156.851 233.284L156.87 209.826L143.08 211.058L147.947 225.853L145.669 263.042C144.565 263.289 143.556 263.853 142.766 264.665C141.977 265.476 141.44 266.499 141.222 267.61C141.004 268.721 141.114 269.872 141.538 270.921C141.963 271.971 142.683 272.874 143.612 273.521C144.541 274.168 145.638 274.531 146.77 274.565C147.902 274.6 149.019 274.304 149.985 273.714C150.952 273.125 151.726 272.266 152.213 271.245C152.7 270.223 152.879 269.081 152.729 267.959L156.851 233.284Z" fill="#FFB6B6"/>
<path d="M183.988 400.92L189.559 400.919L192.21 379.431H183.987L183.988 400.92Z" fill="#FFB6B6"/>
<path d="M182.102 398.171L190.908 397.646V401.419L199.281 407.201C199.695 407.487 200.006 407.897 200.17 408.372C200.334 408.847 200.341 409.362 200.192 409.842C200.042 410.322 199.743 410.741 199.339 411.039C198.934 411.337 198.444 411.498 197.942 411.498H187.457L185.65 407.766L184.944 411.498H180.991L182.102 398.171Z" fill="#2F2E41"/>
<path d="M151.776 400.92L157.347 400.919L159.997 379.431H151.775L151.776 400.92Z" fill="#FFB6B6"/>
<path d="M149.889 398.171L158.696 397.646V401.419L167.069 407.201C167.482 407.487 167.794 407.897 167.958 408.372C168.122 408.847 168.129 409.362 167.98 409.842C167.83 410.322 167.531 410.741 167.126 411.039C166.721 411.337 166.232 411.498 165.729 411.498H155.245L153.438 407.766L152.732 411.498H148.779L149.889 398.171Z" fill="#2F2E41"/>
<path d="M179.027 184.493L167.487 184.719L159.34 193.318L152.809 194.276C149.855 194.709 147.138 196.143 145.115 198.339C143.091 200.534 141.882 203.358 141.689 206.338L142.821 212.553H149.61L153.537 235.612C152.01 239.503 151.906 242.574 155.041 243.781L164.771 262.11L193.51 249.212C194.967 246.706 195.434 244.189 193.945 241.742L195.999 206.443H202.907C202.907 199.841 200.674 194.275 194.113 193.54C191.508 193.258 188.889 193.109 186.269 193.092L179.027 184.493Z" fill="#E6E6E6"/>
<path d="M193.51 249.212C193.51 249.212 165.45 254.19 155.041 243.781C155.041 243.781 153.984 245.575 152.391 248.55C151.933 249.406 151.049 249.986 150.515 251.022C150.029 251.964 148.781 253.122 148.252 254.19C147.826 255.05 148.509 256.173 148.066 257.102C142.735 268.283 136.507 284.055 137.843 294.47C138.704 301.186 140.482 316.814 142.355 333.6C142.501 334.911 141.316 336.596 141.463 337.918C141.602 339.164 143.073 340.047 143.212 341.297C143.304 342.126 142.276 342.973 142.368 343.801C142.469 344.71 143.689 345.601 143.789 346.507C146.355 369.684 148.704 391.322 148.704 391.322H161.829L164.306 341.902L162.282 323.888L167.034 287.455L173.596 322.077L174.441 341.563L181.376 392.227H193.51V343.181L194.415 340.633L193.51 337.365L194.415 333.844L193.51 330.01V249.212Z" fill="#2F2E41"/>
<path d="M182.57 177.8C180.782 180.175 178.239 181.87 175.359 182.606C172.479 183.343 169.434 183.076 166.726 181.851C164.018 180.626 161.808 178.515 160.46 175.866C159.111 173.217 158.706 170.187 159.309 167.277C159.912 164.366 161.489 161.748 163.779 159.853C166.07 157.958 168.937 156.9 171.909 156.852C174.881 156.805 177.781 157.771 180.131 159.591C182.48 161.412 184.14 163.978 184.836 166.868C184.874 167.025 184.906 167.181 184.936 167.343C185.304 169.154 185.283 171.023 184.875 172.825C184.467 174.628 183.682 176.324 182.57 177.8Z" fill="#FFB6B6"/>
<path d="M179.842 170.336C179.565 168.943 178.863 167.67 177.833 166.693C177.934 168.027 177.749 169.368 177.289 170.626C173.849 170.93 170.393 170.246 167.328 168.652C165.02 167.086 162.083 167.222 158.661 168.652C158.661 166.988 158.989 165.34 159.625 163.803C160.262 162.265 161.196 160.868 162.372 159.691C163.549 158.514 164.946 157.581 166.484 156.944C168.021 156.307 169.669 155.98 171.334 155.98H173.596C176.957 155.981 180.18 157.316 182.556 159.692C184.933 162.069 186.268 165.292 186.269 168.652C184.18 169.401 182.03 169.965 179.842 170.336Z" fill="#2F2E41"/>
<path d="M80.8413 331.849C100.948 331.849 117.247 315.55 117.247 295.443C117.247 275.337 100.948 259.038 80.8413 259.038C60.735 259.038 44.4357 275.337 44.4357 295.443C44.4357 315.55 60.735 331.849 80.8413 331.849Z" fill="#F0F0F0"/>
<path d="M312.838 164.811C332.944 164.811 349.244 148.512 349.244 128.406C349.244 108.299 332.944 92 312.838 92C292.732 92 276.432 108.299 276.432 128.406C276.432 148.512 292.732 164.811 312.838 164.811Z" fill="#F0F0F0"/>
<path d="M601.942 337.56C622.048 337.56 638.347 321.26 638.347 301.154C638.347 281.048 622.048 264.748 601.942 264.748C581.835 264.748 565.536 281.048 565.536 301.154C565.536 321.26 581.835 337.56 601.942 337.56Z" fill="#F0F0F0"/>
<path d="M378.511 132.376V214.928C378.511 216.643 377.835 218.289 376.629 219.507C375.423 220.726 373.784 221.42 372.07 221.438C372.046 221.44 372.022 221.441 371.998 221.441H362.39C354.702 221.441 347.33 218.387 341.894 212.951C336.458 207.515 333.404 200.142 333.404 192.454V132.376C333.404 130.649 334.09 128.992 335.311 127.771C336.533 126.549 338.189 125.863 339.916 125.863H343.81C342.006 131.125 366.485 133.34 367.829 125.863H371.998C373.726 125.863 375.382 126.549 376.603 127.771C377.825 128.992 378.511 130.649 378.511 132.376Z" fill="#DDEAFD"/>
<path d="M349.998 119.69C349.999 119.464 350.089 119.247 350.249 119.087C350.409 118.927 350.625 118.837 350.852 118.837H356.656C356.881 118.837 357.098 118.928 357.258 119.088C357.417 119.248 357.507 119.464 357.507 119.69C357.507 119.916 357.417 120.133 357.258 120.293C357.098 120.453 356.881 120.543 356.656 120.544H350.852C350.625 120.543 350.409 120.453 350.249 120.293C350.089 120.133 349.999 119.916 349.998 119.69Z" fill="#3F3D56"/>
<path d="M373.992 231.912H337.29C334.442 231.909 331.712 230.776 329.699 228.763C327.685 226.749 326.552 224.019 326.549 221.172V163.464C326.348 163.32 326.183 163.129 326.07 162.908C325.957 162.687 325.898 162.443 325.899 162.194V156.391C325.898 156.143 325.957 155.898 326.07 155.677C326.183 155.457 326.348 155.266 326.549 155.121V153.564C326.348 153.419 326.183 153.228 326.07 153.008C325.957 152.787 325.898 152.542 325.899 152.294V146.49C325.898 146.242 325.957 145.997 326.07 145.777C326.183 145.556 326.348 145.365 326.549 145.221V142.405C326.3 142.272 326.092 142.073 325.948 141.83C325.803 141.588 325.727 141.31 325.728 141.028V135.224C325.727 134.942 325.803 134.664 325.948 134.422C326.092 134.179 326.3 133.98 326.549 133.846V126.132C326.552 123.285 327.685 120.555 329.699 118.541C331.712 116.528 334.442 115.395 337.29 115.392H373.992C376.84 115.395 379.57 116.528 381.583 118.541C383.597 120.555 384.729 123.285 384.733 126.132V142.947C384.926 143.068 385.086 143.237 385.196 143.436C385.307 143.636 385.365 143.86 385.365 144.088V155.155C385.365 155.383 385.307 155.607 385.196 155.807C385.086 156.007 384.926 156.175 384.733 156.296V221.172C384.729 224.019 383.597 226.749 381.583 228.763C379.57 230.776 376.84 231.909 373.992 231.912ZM337.29 116.82C334.821 116.822 332.454 117.804 330.708 119.55C328.962 121.296 327.98 123.663 327.977 126.132V135.061L327.29 135.087C327.254 135.088 327.221 135.103 327.196 135.129C327.171 135.154 327.156 135.188 327.156 135.224V141.028C327.156 141.064 327.171 141.098 327.196 141.123C327.221 141.148 327.254 141.163 327.29 141.165L327.977 141.191V146.223L327.434 146.357C327.404 146.364 327.377 146.381 327.357 146.405C327.338 146.429 327.327 146.459 327.326 146.49V152.294C327.327 152.325 327.338 152.355 327.357 152.379C327.377 152.403 327.404 152.42 327.434 152.427L327.977 152.561V156.124L327.434 156.258C327.404 156.265 327.377 156.282 327.357 156.306C327.338 156.33 327.327 156.36 327.326 156.391V162.194C327.327 162.225 327.338 162.255 327.357 162.279C327.377 162.304 327.404 162.321 327.434 162.328L327.977 162.462V221.172C327.98 223.641 328.962 226.008 330.708 227.754C332.454 229.499 334.821 230.482 337.29 230.484H373.992C376.461 230.481 378.828 229.499 380.574 227.754C382.32 226.008 383.302 223.641 383.305 221.172V155.073H383.937V144.17H383.305V126.132C383.302 123.663 382.32 121.296 380.574 119.55C378.828 117.804 376.461 116.822 373.992 116.819L337.29 116.82Z" fill="#3F3D56"/>
<path d="M359.899 120.544C360.37 120.544 360.752 120.162 360.752 119.69C360.752 119.219 360.37 118.837 359.899 118.837C359.427 118.837 359.045 119.219 359.045 119.69C359.045 120.162 359.427 120.544 359.899 120.544Z" fill="#3F3D56"/>
<path d="M174.233 285.023H78.7312C77.375 285.02 76.0753 284.48 75.1162 283.521C74.1571 282.562 73.6167 281.262 73.613 279.906V233.372C73.6165 232.015 74.1568 230.716 75.1157 229.757C76.0746 228.798 77.3743 228.257 78.7305 228.253H174.233C175.589 228.257 176.888 228.797 177.848 229.756C178.807 230.715 179.347 232.015 179.351 233.371V279.905C179.347 281.261 178.807 282.561 177.848 283.52C176.889 284.479 175.589 285.02 174.233 285.023Z" fill="white"/>
<path d="M174.233 285.023H78.7312C77.375 285.02 76.0753 284.48 75.1162 283.521C74.1571 282.562 73.6167 281.262 73.613 279.906V233.372C73.6165 232.015 74.1568 230.716 75.1157 229.757C76.0746 228.798 77.3743 228.257 78.7305 228.253H174.233C175.589 228.257 176.888 228.797 177.848 229.756C178.807 230.715 179.347 232.015 179.351 233.371V279.905C179.347 281.261 178.807 282.561 177.848 283.52C176.889 284.479 175.589 285.02 174.233 285.023ZM78.7312 229.681C77.7532 229.684 76.816 230.074 76.1246 230.765C75.4331 231.457 75.0434 232.394 75.0407 233.372V279.905C75.0435 280.883 75.4334 281.82 76.125 282.512C76.8166 283.203 77.7539 283.593 78.7319 283.596H174.232C175.21 283.593 176.147 283.203 176.839 282.512C177.531 281.82 177.92 280.883 177.923 279.904V233.372C177.92 232.394 177.53 231.456 176.839 230.765C176.147 230.073 175.21 229.684 174.232 229.681L78.7312 229.681Z" fill="#3F3D56"/>
<path d="M131.601 278.146C112.765 278.146 93.1256 277.966 85.7978 277.85C84.8337 277.83 83.9155 277.434 83.2394 276.746C82.5632 276.059 82.1827 275.134 82.179 274.17V235.65C82.1793 235.304 82.3164 234.973 82.5603 234.729C82.8042 234.484 83.135 234.346 83.4803 234.345H169.48C169.825 234.346 170.157 234.483 170.401 234.727C170.645 234.97 170.783 235.301 170.785 235.646V261.781C170.768 266.047 169.081 270.137 166.084 273.174C163.087 276.21 159.02 277.951 154.754 278.023C147.925 278.112 139.837 278.146 131.601 278.146Z" fill="#DDEAFD"/>
<path d="M164.375 259.38H86.6677C86.017 259.378 85.3826 259.176 84.8508 258.801C84.319 258.427 83.9155 257.897 83.6952 257.285L74.8998 232.61C74.7303 232.134 74.6775 231.624 74.7458 231.124C74.8141 230.623 75.0015 230.147 75.2922 229.733C75.583 229.32 75.9687 228.983 76.4168 228.75C76.865 228.517 77.3626 228.395 77.8677 228.394L175.001 228.258C175.463 228.258 175.919 228.359 176.338 228.554C176.756 228.749 177.127 229.033 177.423 229.387C177.72 229.74 177.936 230.155 178.055 230.601C178.174 231.047 178.194 231.514 178.113 231.969L178.188 232L177.909 232.651L177.906 232.658L167.274 257.467C167.031 258.035 166.627 258.519 166.112 258.86C165.597 259.2 164.993 259.381 164.375 259.38ZM175.006 229.686L77.8705 229.821C77.5938 229.822 77.3212 229.889 77.0757 230.016C76.8302 230.144 76.6189 230.329 76.4596 230.555C76.3003 230.781 76.1976 231.042 76.1602 231.317C76.1227 231.591 76.1517 231.87 76.2445 232.131L85.0395 256.804C85.1604 257.14 85.3816 257.43 85.6731 257.635C85.9645 257.841 86.3121 257.951 86.6687 257.953H164.375C164.713 257.953 165.044 257.854 165.326 257.668C165.608 257.481 165.829 257.216 165.961 256.906L176.594 232.095C176.707 231.832 176.753 231.546 176.727 231.261C176.702 230.976 176.606 230.702 176.449 230.463C176.291 230.224 176.077 230.028 175.825 229.892C175.573 229.757 175.292 229.686 175.006 229.686Z" fill="#3F3D56"/>
<path d="M126.337 264.751C129.697 264.751 132.422 262.027 132.422 258.667C132.422 255.306 129.697 252.582 126.337 252.582C122.976 252.582 120.252 255.306 120.252 258.667C120.252 262.027 122.976 264.751 126.337 264.751Z" fill="white"/>
<path d="M356.192 211.928C359.553 211.928 362.277 209.203 362.277 205.843C362.277 202.482 359.553 199.758 356.192 199.758C352.832 199.758 350.107 202.482 350.107 205.843C350.107 209.203 352.832 211.928 356.192 211.928Z" fill="white"/>
<path d="M586.33 294.101L570.076 278.054C569.285 277.267 568.346 276.643 567.313 276.22C566.281 275.796 565.175 275.58 564.058 275.584H564.001C562.877 275.588 561.764 275.814 560.727 276.25C559.691 276.686 558.751 277.324 557.962 278.126C554.328 281.804 552.261 286.747 552.196 291.918C552.13 297.088 554.072 302.082 557.612 305.851C557.784 306.037 557.962 306.215 558.141 306.393C559.129 307.376 560.22 308.25 561.396 308.999C564.609 311.075 568.356 312.174 572.182 312.161H572.303C574.929 312.152 577.527 311.623 579.947 310.603C582.367 309.584 584.561 308.095 586.401 306.222C587.996 304.604 588.885 302.419 588.871 300.147C588.858 297.875 587.944 295.701 586.33 294.101ZM585.388 305.216C582.37 308.256 578.396 310.163 574.137 310.615C569.877 311.068 565.592 310.038 562.002 307.7C560.976 307.02 560.017 306.243 559.14 305.38C555.638 301.921 553.653 297.212 553.622 292.29C553.591 287.368 555.517 282.635 558.976 279.132C559.633 278.462 560.417 277.93 561.283 277.566C562.148 277.202 563.077 277.013 564.015 277.012H564.058C564.988 277.009 565.909 277.189 566.768 277.541C567.628 277.894 568.41 278.413 569.069 279.068L585.323 295.122C586.669 296.453 587.432 298.263 587.444 300.156C587.456 302.048 586.716 303.868 585.388 305.216Z" fill="#3F3D56"/>
<path d="M532.999 241.434L516.745 225.38C515.145 223.793 512.981 222.905 510.728 222.91H510.678C509.552 222.915 508.437 223.142 507.4 223.58C506.362 224.017 505.421 224.656 504.631 225.459C501.627 228.51 499.679 232.444 499.072 236.683C498.466 240.922 499.233 245.244 501.262 249.015L501.269 249.022C502.106 250.565 503.146 251.989 504.36 253.256C504.496 253.413 504.653 253.57 504.81 253.727C508.543 257.432 513.592 259.506 518.851 259.494H518.98C521.606 259.484 524.204 258.952 526.624 257.932C529.043 256.911 531.237 255.421 533.078 253.548C533.868 252.748 534.493 251.799 534.917 250.757C535.341 249.715 535.555 248.6 535.548 247.475C535.54 246.35 535.312 245.238 534.874 244.201C534.437 243.165 533.8 242.225 532.999 241.434ZM532.057 252.549C530.348 254.287 528.312 255.67 526.067 256.617C523.821 257.564 521.41 258.057 518.972 258.067H518.851C515.191 258.065 511.613 256.982 508.567 254.952C505.52 252.922 503.143 250.037 501.732 246.66C500.321 243.282 499.941 239.563 500.638 235.97C501.336 232.377 503.08 229.07 505.652 226.465C506.983 225.12 508.793 224.357 510.686 224.345C512.578 224.333 514.398 225.073 515.746 226.401L532 242.448C533.345 243.781 534.106 245.593 534.116 247.487C534.127 249.38 533.387 251.201 532.057 252.549Z" fill="#3F3D56"/>
<path d="M587.369 299.146L569.449 281.448C568.274 280.29 566.688 279.645 565.038 279.656C563.388 279.666 561.81 280.33 560.65 281.503C559.198 282.969 558.049 284.708 557.27 286.619C556.49 288.53 556.095 290.575 556.107 292.639C556.118 294.703 556.536 296.744 557.338 298.646C558.139 300.548 559.307 302.274 560.775 303.724C562.243 305.174 563.983 306.321 565.895 307.098C567.807 307.876 569.853 308.269 571.917 308.255C573.981 308.241 576.021 307.82 577.922 307.017C579.824 306.214 581.548 305.044 582.996 303.574L587.369 299.146Z" fill="#DDEAFD"/>
<path d="M534.041 246.477L516.122 228.778C514.947 227.62 513.36 226.975 511.711 226.986C510.061 226.996 508.483 227.66 507.322 228.833C505.87 230.299 504.722 232.038 503.942 233.949C503.163 235.86 502.767 237.906 502.779 239.969C502.791 242.033 503.209 244.074 504.01 245.976C504.811 247.878 505.979 249.604 507.448 251.054C508.916 252.504 510.656 253.651 512.568 254.428C514.479 255.206 516.526 255.599 518.589 255.585C520.653 255.571 522.694 255.15 524.595 254.347C526.496 253.544 528.22 252.374 529.669 250.904L534.041 246.477Z" fill="#DDEAFD"/>
<path d="M567.677 310.17L567.249 311.297C565.236 310.534 563.285 309.768 561.396 308.999C527.931 295.343 511.955 279.36 501.269 249.022L501.262 249.015C500.755 247.588 500.263 246.127 499.785 244.632L500.912 244.268C501.29 245.705 501.841 247.091 502.554 248.394C503.14 250.058 503.742 251.678 504.36 253.256C514.404 278.861 529.216 293.494 557.612 305.851C559.04 306.472 560.503 307.088 562.003 307.7C563.743 308.834 565.661 309.669 567.677 310.17Z" fill="#3F3D56"/>
<path d="M516.447 258.195L515.444 259.211L552.519 295.829L553.523 294.813L516.447 258.195Z" fill="#3F3D56"/>
<path d="M202.562 227.853L202.581 204.395L188.791 205.627L193.658 220.422L175.992 247.201C174.888 247.449 173.879 248.013 173.089 248.824C172.299 249.636 171.763 250.659 171.545 251.77C171.327 252.881 171.437 254.031 171.861 255.081C172.286 256.13 173.006 257.034 173.935 257.681C174.864 258.328 175.961 258.691 177.093 258.725C178.225 258.759 179.342 258.464 180.308 257.874C181.275 257.284 182.049 256.426 182.536 255.404C183.023 254.382 183.202 253.241 183.052 252.119L202.562 227.853Z" fill="#FFB6B6"/>
</g>
<defs>
<clipPath id="clip0_2003_7">
<rect width="638.347" height="320" fill="white" transform="translate(0 92)"/>
</clipPath>
</defs>
</svg>
